<svg width="80" height="80" viewBox="0 0 80 80" fill="none" xmlns="http://www.w3.org/2000/svg">
<mask id="path-1-inside-1_763_5546" fill="white">
<path d="M0 12C0 5.37258 5.37258 0 12 0H68C74.6274 0 80 5.37258 80 12V68C80 74.6274 74.6274 80 68 80H12C5.37258 80 0 74.6274 0 68V12Z"/>
</mask>
<path d="M0 12C0 5.37258 5.37258 0 12 0H68C74.6274 0 80 5.37258 80 12V68C80 74.6274 74.6274 80 68 80H12C5.37258 80 0 74.6274 0 68V12Z" fill="#EFEFEF"/>
<path d="M12 0V1H68V0V-1H12V0ZM80 12H79V68H80H81V12H80ZM68 80V79H12V80V81H68V80ZM0 68H1V12H0H-1V68H0ZM12 80V79C5.92487 79 1 74.0751 1 68H0H-1C-1 75.1797 4.8203 81 12 81V80ZM80 68H79C79 74.0751 74.0751 79 68 79V80V81C75.1797 81 81 75.1797 81 68H80ZM68 0V1C74.0751 1 79 5.92487 79 12H80H81C81 4.8203 75.1797 -1 68 -1V0ZM12 0V-1C4.8203 -1 -1 4.8203 -1 12H0H1C1 5.92487 5.92487 1 12 1V0Z" fill="#CCCCCC" mask="url(#path-1-inside-1_763_5546)"/>
<path d="M50.5 43.5V48.1667C50.5 48.7855 50.2542 49.379 49.8166 49.8166C49.379 50.2542 48.7855 50.5 48.1667 50.5H31.8333C31.2145 50.5 30.621 50.2542 30.1834 49.8166C29.7458 49.379 29.5 48.7855 29.5 48.1667V43.5" stroke="#0D0D0D" stroke-width="2" stroke-linecap="round" stroke-linejoin="round"/>
<path d="M45.8334 35.3333L40.0001 29.5L34.1667 35.3333" stroke="#0D0D0D" stroke-width="2" stroke-linecap="round" stroke-linejoin="round"/>
<path d="M40 29.5V43.5" stroke="#0D0D0D" stroke-width="2" stroke-linecap="round" stroke-linejoin="round"/>
</svg>
